<mxfile host="65bd71144e">
    <diagram id="jk-mDYcw6juqVpxIaa4l" name="第 1 页">
        <mxGraphModel dx="3294" dy="1982" grid="1" gridSize="10" guides="1" tooltips="1" connect="1" arrows="1" fold="1" page="1" pageScale="1" pageWidth="1920" pageHeight="1200" background="#ffffff" math="0" shadow="0">
            <root>
                <mxCell id="0"/>
                <mxCell id="1" parent="0"/>
                <mxCell id="407" value="" style="rounded=0;whiteSpace=wrap;html=1;fontStyle=1;fontColor=#ffffff;strokeColor=none;fillColor=none;" vertex="1" parent="1">
                    <mxGeometry x="-20" y="-50" width="1570" height="1200" as="geometry"/>
                </mxCell>
                <mxCell id="167" value="&lt;span style=&quot;font-size: 18px&quot;&gt;domainSDK&lt;/span&gt;" style="text;html=1;strokeColor=none;fillColor=none;align=center;verticalAlign=middle;whiteSpace=wrap;rounded=0;" parent="1" vertex="1">
                    <mxGeometry x="110" y="810" width="140" height="20" as="geometry"/>
                </mxCell>
                <mxCell id="173" value="&lt;font style=&quot;font-size: 18px&quot;&gt;业务模块&lt;/font&gt;" style="text;html=1;align=center;verticalAlign=middle;resizable=0;points=[];autosize=1;strokeColor=none;" parent="1" vertex="1">
                    <mxGeometry x="130" y="620" width="90" height="20" as="geometry"/>
                </mxCell>
                <mxCell id="185" value="" style="rounded=0;whiteSpace=wrap;html=1;fillColor=#fad7ac;strokeColor=none;" parent="1" vertex="1">
                    <mxGeometry x="230" y="20" width="870" height="60" as="geometry"/>
                </mxCell>
                <mxCell id="189" value="&lt;font style=&quot;font-size: 36px&quot; color=&quot;#000000&quot;&gt;......&lt;/font&gt;" style="text;html=1;strokeColor=none;fillColor=none;align=center;verticalAlign=middle;whiteSpace=wrap;rounded=0;" parent="1" vertex="1">
                    <mxGeometry x="740" y="30" width="40" height="20" as="geometry"/>
                </mxCell>
                <mxCell id="190" value="&lt;span style=&quot;font-size: 18px&quot;&gt;知客&lt;/span&gt;" style="rounded=1;whiteSpace=wrap;html=1;fontColor=#1A1A1A;fillColor=#FFFFFF;" parent="1" vertex="1">
                    <mxGeometry x="445" y="30" width="100" height="40" as="geometry"/>
                </mxCell>
                <mxCell id="191" value="&lt;span style=&quot;font-size: 18px&quot;&gt;SaaS&lt;/span&gt;" style="rounded=1;whiteSpace=wrap;html=1;fontColor=#1A1A1A;fillColor=#FFFFFF;" parent="1" vertex="1">
                    <mxGeometry x="300" y="30" width="100" height="40" as="geometry"/>
                </mxCell>
                <mxCell id="192" value="" style="rounded=0;whiteSpace=wrap;html=1;fillColor=#FFCC99;" parent="1" vertex="1">
                    <mxGeometry x="230" y="120" width="870" height="60" as="geometry"/>
                </mxCell>
                <mxCell id="198" style="edgeStyle=none;html=1;exitX=0.75;exitY=0;exitDx=0;exitDy=0;fontColor=#1A1A1A;" parent="1" source="194" edge="1">
                    <mxGeometry relative="1" as="geometry">
                        <mxPoint x="330" y="160" as="targetPoint"/>
                    </mxGeometry>
                </mxCell>
                <mxCell id="194" value="&lt;span style=&quot;font-size: 18px&quot;&gt;PC发起端&lt;/span&gt;" style="rounded=1;whiteSpace=wrap;html=1;fontColor=#1A1A1A;fillColor=#FFFFFF;" parent="1" vertex="1">
                    <mxGeometry x="270" y="130" width="110" height="40" as="geometry"/>
                </mxCell>
                <mxCell id="195" value="&lt;span style=&quot;font-size: 18px&quot;&gt;H5观看端&lt;/span&gt;" style="rounded=1;whiteSpace=wrap;html=1;fontColor=#1A1A1A;fillColor=#FFFFFF;" parent="1" vertex="1">
                    <mxGeometry x="560" y="130" width="100" height="40" as="geometry"/>
                </mxCell>
                <mxCell id="196" value="&lt;span style=&quot;font-size: 18px&quot;&gt;PC观看端&lt;/span&gt;" style="rounded=1;whiteSpace=wrap;html=1;fontColor=#1A1A1A;fillColor=#FFFFFF;" parent="1" vertex="1">
                    <mxGeometry x="420" y="130" width="110" height="40" as="geometry"/>
                </mxCell>
                <mxCell id="197" style="edgeStyle=none;html=1;exitX=0.75;exitY=0;exitDx=0;exitDy=0;entryX=1;entryY=0.25;entryDx=0;entryDy=0;fontColor=#1A1A1A;" parent="1" source="194" target="194" edge="1">
                    <mxGeometry relative="1" as="geometry"/>
                </mxCell>
                <mxCell id="200" value="" style="endArrow=classic;html=1;fontColor=#1A1A1A;" parent="1" edge="1">
                    <mxGeometry width="50" height="50" relative="1" as="geometry">
                        <mxPoint x="405" y="92" as="sourcePoint"/>
                        <mxPoint x="405" y="136" as="targetPoint"/>
                    </mxGeometry>
                </mxCell>
                <mxCell id="206" value="" style="endArrow=none;dashed=1;html=1;fontColor=#1A1A1A;" parent="1" edge="1">
                    <mxGeometry width="50" height="50" relative="1" as="geometry">
                        <mxPoint x="290" y="889.67" as="sourcePoint"/>
                        <mxPoint x="340" y="839.67" as="targetPoint"/>
                    </mxGeometry>
                </mxCell>
                <mxCell id="207" value="" style="endArrow=none;dashed=1;html=1;fontColor=#1A1A1A;" parent="1" edge="1">
                    <mxGeometry width="50" height="50" relative="1" as="geometry">
                        <mxPoint x="290" y="889.67" as="sourcePoint"/>
                        <mxPoint x="340" y="839.67" as="targetPoint"/>
                    </mxGeometry>
                </mxCell>
                <mxCell id="208" value="" style="endArrow=none;dashed=1;html=1;fontColor=#1A1A1A;strokeWidth=2;strokeColor=#4D4D4D;" parent="1" edge="1">
                    <mxGeometry width="50" height="50" relative="1" as="geometry">
                        <mxPoint x="110" y="100" as="sourcePoint"/>
                        <mxPoint x="1100" y="100" as="targetPoint"/>
                    </mxGeometry>
                </mxCell>
                <mxCell id="209" value="&lt;font style=&quot;font-size: 24px&quot;&gt;业务线&lt;/font&gt;" style="text;html=1;strokeColor=none;fillColor=none;align=center;verticalAlign=middle;whiteSpace=wrap;rounded=0;fontColor=#1A1A1A;" parent="1" vertex="1">
                    <mxGeometry x="130" y="50" width="90" height="20" as="geometry"/>
                </mxCell>
                <mxCell id="212" value="&lt;font style=&quot;font-size: 36px&quot; color=&quot;#000000&quot;&gt;......&lt;/font&gt;" style="text;html=1;strokeColor=none;fillColor=none;align=center;verticalAlign=middle;whiteSpace=wrap;rounded=0;" parent="1" vertex="1">
                    <mxGeometry x="980" y="130" width="40" height="20" as="geometry"/>
                </mxCell>
                <mxCell id="213" value="&lt;font style=&quot;font-size: 24px&quot;&gt;项目&lt;/font&gt;" style="text;html=1;strokeColor=none;fillColor=none;align=center;verticalAlign=middle;whiteSpace=wrap;rounded=0;fontColor=#1A1A1A;" parent="1" vertex="1">
                    <mxGeometry x="130" y="140" width="60" height="20" as="geometry"/>
                </mxCell>
                <mxCell id="214" value="" style="endArrow=none;dashed=1;html=1;fontColor=#1A1A1A;strokeWidth=2;strokeColor=#4D4D4D;" parent="1" edge="1">
                    <mxGeometry width="50" height="50" relative="1" as="geometry">
                        <mxPoint x="110" y="210" as="sourcePoint"/>
                        <mxPoint x="1100" y="210" as="targetPoint"/>
                    </mxGeometry>
                </mxCell>
                <mxCell id="215" value="" style="rounded=1;whiteSpace=wrap;html=1;fillColor=#dae8fc;gradientColor=#7ea6e0;strokeColor=#6c8ebf;" parent="1" vertex="1">
                    <mxGeometry x="560" y="217" width="170" height="222" as="geometry"/>
                </mxCell>
                <mxCell id="223" value="" style="endArrow=none;dashed=1;html=1;fontColor=#1A1A1A;strokeWidth=2;strokeColor=#4D4D4D;" parent="1" edge="1">
                    <mxGeometry width="50" height="50" relative="1" as="geometry">
                        <mxPoint x="100" y="460" as="sourcePoint"/>
                        <mxPoint x="980" y="460" as="targetPoint"/>
                    </mxGeometry>
                </mxCell>
                <mxCell id="224" value="&lt;span style=&quot;font-size: 24px&quot;&gt;基础服务与业务组件&lt;/span&gt;" style="text;html=1;strokeColor=none;fillColor=none;align=center;verticalAlign=middle;whiteSpace=wrap;rounded=0;fontColor=#1A1A1A;" parent="1" vertex="1">
                    <mxGeometry x="120" y="292" width="100" height="60" as="geometry"/>
                </mxCell>
                <mxCell id="227" value="" style="rounded=1;whiteSpace=wrap;html=1;fillColor=#FFB366;" parent="1" vertex="1">
                    <mxGeometry x="230" y="220" width="140" height="210" as="geometry"/>
                </mxCell>
                <mxCell id="225" value="&lt;font style=&quot;font-size: 14px&quot;&gt;公用组件库&amp;nbsp; /packages&lt;/font&gt;" style="text;html=1;strokeColor=none;fillColor=none;align=center;verticalAlign=middle;whiteSpace=wrap;rounded=0;fontColor=#1A1A1A;" parent="1" vertex="1">
                    <mxGeometry x="570" y="226" width="155" height="20" as="geometry"/>
                </mxCell>
                <mxCell id="219" value="&lt;font style=&quot;font-size: 14px&quot;&gt;scripts/cli-service&lt;/font&gt;" style="rounded=1;whiteSpace=wrap;html=1;fontColor=#1A1A1A;fillColor=#FFFFFF;" parent="1" vertex="1">
                    <mxGeometry x="239" y="256" width="120" height="30" as="geometry"/>
                </mxCell>
                <mxCell id="228" value="&lt;font style=&quot;font-size: 14px&quot;&gt;统一编译部署命令&lt;/font&gt;" style="text;html=1;strokeColor=none;fillColor=none;align=center;verticalAlign=middle;whiteSpace=wrap;rounded=0;fontColor=#1A1A1A;" parent="1" vertex="1">
                    <mxGeometry x="241" y="233" width="118" height="17" as="geometry"/>
                </mxCell>
                <mxCell id="237" value="" style="rounded=1;whiteSpace=wrap;html=1;fillColor=#dae8fc;gradientColor=#7ea6e0;strokeColor=#6c8ebf;" parent="1" vertex="1">
                    <mxGeometry x="240" y="760" width="250" height="290" as="geometry"/>
                </mxCell>
                <mxCell id="244" value="&lt;font style=&quot;font-size: 24px&quot;&gt;主工程&lt;/font&gt;" style="text;html=1;strokeColor=none;fillColor=none;align=center;verticalAlign=middle;whiteSpace=wrap;rounded=0;fontColor=#1A1A1A;" parent="1" vertex="1">
                    <mxGeometry x="120" y="750" width="90" height="20" as="geometry"/>
                </mxCell>
                <mxCell id="245" value="" style="endArrow=none;dashed=1;html=1;fontColor=#1A1A1A;strokeWidth=2;strokeColor=#4D4D4D;exitX=1;exitY=1;exitDx=0;exitDy=0;" parent="1" source="328" edge="1">
                    <mxGeometry width="50" height="50" relative="1" as="geometry">
                        <mxPoint x="144" y="1078.67" as="sourcePoint"/>
                        <mxPoint x="1084" y="1078.67" as="targetPoint"/>
                    </mxGeometry>
                </mxCell>
                <mxCell id="246" value="&lt;font style=&quot;font-size: 24px&quot;&gt;单&lt;br&gt;项&lt;br&gt;目&lt;br&gt;结&lt;br&gt;构&lt;/font&gt;" style="rounded=1;whiteSpace=wrap;html=1;fontColor=#ffffff;strokeColor=#006EAF;fontSize=24;fillColor=#3399FF;" parent="1" vertex="1">
                    <mxGeometry x="1000" y="220" width="80" height="860" as="geometry"/>
                </mxCell>
                <mxCell id="248" value="" style="rounded=1;whiteSpace=wrap;html=1;fillColor=#FFB366;" parent="1" vertex="1">
                    <mxGeometry x="390" y="221" width="130" height="150" as="geometry"/>
                </mxCell>
                <mxCell id="250" value="&lt;font style=&quot;font-size: 18px&quot;&gt;domainSdk&lt;br&gt;业务行为封装&lt;/font&gt;" style="text;html=1;strokeColor=none;fillColor=none;align=center;verticalAlign=middle;whiteSpace=wrap;rounded=0;fontColor=#1A1A1A;" parent="1" vertex="1">
                    <mxGeometry x="395" y="324" width="120" height="39" as="geometry"/>
                </mxCell>
                <mxCell id="255" value="" style="rounded=1;whiteSpace=wrap;html=1;fillColor=#FFB366;" parent="1" vertex="1">
                    <mxGeometry x="820" y="217" width="160" height="223" as="geometry"/>
                </mxCell>
                <mxCell id="256" value="&lt;font style=&quot;font-size: 18px&quot;&gt;事件驱动middleEventSdk&lt;/font&gt;" style="text;html=1;strokeColor=none;fillColor=none;align=center;verticalAlign=middle;whiteSpace=wrap;rounded=0;fontColor=#1A1A1A;" parent="1" vertex="1">
                    <mxGeometry x="825" y="388.25" width="150" height="37" as="geometry"/>
                </mxCell>
                <mxCell id="263" value="&lt;font style=&quot;font-size: 24px&quot;&gt;core&lt;/font&gt;" style="text;html=1;strokeColor=none;fillColor=none;align=center;verticalAlign=middle;whiteSpace=wrap;rounded=0;fontColor=#1A1A1A;" parent="1" vertex="1">
                    <mxGeometry x="240" y="770" width="90" height="20" as="geometry"/>
                </mxCell>
                <mxCell id="267" value="&lt;span style=&quot;color: rgba(0 , 0 , 0 , 0) ; font-family: monospace ; font-size: 0px&quot;&gt;%3CmxGraphModel%3E%3Croot%3E%3CmxCell%20id%3D%220%22%2F%3E%3CmxCell%20id%3D%221%22%20parent%3D%220%22%2F%3E%3CmxCell%20id%3D%222%22%20value%3D%22%26lt%3Bfont%20style%3D%26quot%3Bfont-size%3A%2018px%26quot%3B%26gt%3Bconfig.js%26lt%3B%2Ffont%26gt%3B%22%20style%3D%22rounded%3D1%3BwhiteSpace%3Dwrap%3Bhtml%3D1%3BfontColor%3D%231A1A1A%3BfillColor%3D%23FFFFFF%3B%22%20vertex%3D%221%22%20parent%3D%221%22%3E%3CmxGeometry%20x%3D%22223%22%20y%3D%22529.9999999999999%22%20width%3D%22100%22%20height%3D%2235%22%20as%3D%22geometry%22%2F%3E%3C%2FmxCell%3E%3C%2Froot%3E%3C%2FmxGraphModel%3E&lt;/span&gt;" style="rounded=1;whiteSpace=wrap;html=1;fillColor=#dae8fc;gradientColor=#7ea6e0;strokeColor=#6c8ebf;" parent="1" vertex="1">
                    <mxGeometry x="240" y="490.66" width="250" height="249.34" as="geometry"/>
                </mxCell>
                <mxCell id="264" value="&lt;font style=&quot;font-size: 14px&quot;&gt;服务配置&lt;br&gt;config.js&lt;/font&gt;" style="rounded=1;whiteSpace=wrap;html=1;fontColor=#1A1A1A;fillColor=#FFFFFF;" parent="1" vertex="1">
                    <mxGeometry x="320" y="510.66" width="130" height="40" as="geometry"/>
                </mxCell>
                <mxCell id="269" value="&lt;font style=&quot;font-size: 18px&quot;&gt;自定义配置或组件&lt;/font&gt;" style="text;html=1;strokeColor=none;fillColor=none;align=center;verticalAlign=middle;whiteSpace=wrap;rounded=0;fontColor=#1A1A1A;" parent="1" vertex="1">
                    <mxGeometry x="263" y="510" width="34" height="200" as="geometry"/>
                </mxCell>
                <mxCell id="273" value="&lt;span style=&quot;font-size: 14px&quot;&gt;初始化服务配置&lt;/span&gt;" style="rounded=1;whiteSpace=wrap;html=1;fontColor=#1A1A1A;fillColor=#FFFFFF;" parent="1" vertex="1">
                    <mxGeometry x="278" y="800" width="164" height="40" as="geometry"/>
                </mxCell>
                <mxCell id="274" value="&lt;span style=&quot;font-size: 14px&quot;&gt;全局注册(use)组件&lt;br&gt;&lt;/span&gt;" style="rounded=1;whiteSpace=wrap;html=1;fontColor=#1A1A1A;fillColor=#FFFFFF;align=center;" parent="1" vertex="1">
                    <mxGeometry x="276" y="860" width="166" height="40" as="geometry"/>
                </mxCell>
                <mxCell id="275" value="&lt;span style=&quot;font-size: 14px&quot;&gt;初始化全局混入mixin&lt;/span&gt;&lt;span style=&quot;font-size: 14px&quot;&gt;&lt;br&gt;&lt;/span&gt;" style="rounded=1;whiteSpace=wrap;html=1;fontColor=#1A1A1A;fillColor=#FFFFFF;" parent="1" vertex="1">
                    <mxGeometry x="276" y="915" width="165" height="45" as="geometry"/>
                </mxCell>
                <mxCell id="276" value="&lt;font style=&quot;font-size: 14px&quot;&gt;语言国际化&lt;br&gt;core/locales&lt;/font&gt;" style="rounded=1;whiteSpace=wrap;html=1;fontColor=#1A1A1A;fillColor=#FFFFFF;" parent="1" vertex="1">
                    <mxGeometry x="315" y="570" width="134" height="40" as="geometry"/>
                </mxCell>
                <mxCell id="277" value="&lt;span style=&quot;font-size: 14px&quot;&gt;主题更换&lt;br&gt;assets/styles/skins&lt;br&gt;&lt;/span&gt;" style="rounded=1;whiteSpace=wrap;html=1;fontColor=#1A1A1A;fillColor=#FFFFFF;" parent="1" vertex="1">
                    <mxGeometry x="315" y="623" width="135" height="40" as="geometry"/>
                </mxCell>
                <mxCell id="279" value="&lt;span style=&quot;font-size: 14px&quot;&gt;初始化i18n&lt;br&gt;&lt;/span&gt;" style="rounded=1;whiteSpace=wrap;html=1;fontColor=#1A1A1A;fillColor=#FFFFFF;" parent="1" vertex="1">
                    <mxGeometry x="276" y="980" width="164" height="40" as="geometry"/>
                </mxCell>
                <mxCell id="283" value="&lt;span style=&quot;font-size: 14px&quot;&gt;个性组件&lt;br&gt;components&lt;br&gt;&lt;/span&gt;" style="rounded=1;whiteSpace=wrap;html=1;fontColor=#1A1A1A;fillColor=#FFFFFF;" parent="1" vertex="1">
                    <mxGeometry x="311.5" y="680" width="138.5" height="40" as="geometry"/>
                </mxCell>
                <mxCell id="288" value="&lt;font color=&quot;#4d4d4d&quot; style=&quot;font-size: 14px&quot;&gt;&amp;nbsp;配置全局语言、主题、布局组件及组件事件&lt;/font&gt;" style="rounded=0;whiteSpace=wrap;html=1;fillColor=#d0cee2;strokeColor=#56517e;align=left;" parent="1" vertex="1">
                    <mxGeometry x="540" y="500.66" width="380" height="40" as="geometry"/>
                </mxCell>
                <mxCell id="289" value="&lt;font color=&quot;#4d4d4d&quot;&gt;&lt;span style=&quot;font-size: 14px&quot;&gt;&amp;nbsp;多语言文本配置在此，zh-CN.js, en-US.js&lt;/span&gt;&lt;/font&gt;" style="rounded=0;whiteSpace=wrap;html=1;fillColor=#d0cee2;strokeColor=#56517e;align=left;" parent="1" vertex="1">
                    <mxGeometry x="540" y="560" width="380" height="40" as="geometry"/>
                </mxCell>
                <mxCell id="290" value="&lt;font color=&quot;#4d4d4d&quot; style=&quot;font-size: 14px&quot;&gt;&amp;nbsp; 配置多种主题样式，less文件&lt;/font&gt;" style="rounded=0;whiteSpace=wrap;html=1;fillColor=#d0cee2;strokeColor=#56517e;align=left;" parent="1" vertex="1">
                    <mxGeometry x="540" y="620" width="380" height="40" as="geometry"/>
                </mxCell>
                <mxCell id="291" value="&lt;font color=&quot;#4d4d4d&quot;&gt;&lt;span style=&quot;font-size: 14px&quot;&gt;&amp;nbsp; 仅该项目使用的组件，一般情况下会定义在packages中&lt;/span&gt;&lt;/font&gt;" style="rounded=0;whiteSpace=wrap;html=1;fillColor=#d0cee2;strokeColor=#56517e;align=left;" parent="1" vertex="1">
                    <mxGeometry x="540" y="680" width="380" height="40" as="geometry"/>
                </mxCell>
                <mxCell id="294" value="" style="endArrow=classic;html=1;dashed=1;fontColor=#1A1A1A;strokeColor=#4D4D4D;strokeWidth=2;exitX=1;exitY=0.5;exitDx=0;exitDy=0;entryX=0;entryY=0.5;entryDx=0;entryDy=0;" parent="1" source="264" target="288" edge="1">
                    <mxGeometry width="50" height="50" relative="1" as="geometry">
                        <mxPoint x="450" y="570" as="sourcePoint"/>
                        <mxPoint x="510" y="520" as="targetPoint"/>
                    </mxGeometry>
                </mxCell>
                <mxCell id="295" value="" style="endArrow=classic;html=1;dashed=1;fontColor=#1A1A1A;strokeColor=#4D4D4D;strokeWidth=2;exitX=1;exitY=0.5;exitDx=0;exitDy=0;entryX=0;entryY=0.5;entryDx=0;entryDy=0;" parent="1" source="276" target="289" edge="1">
                    <mxGeometry width="50" height="50" relative="1" as="geometry">
                        <mxPoint x="450" y="630" as="sourcePoint"/>
                        <mxPoint x="500" y="580" as="targetPoint"/>
                    </mxGeometry>
                </mxCell>
                <mxCell id="296" value="" style="endArrow=classic;html=1;dashed=1;fontColor=#1A1A1A;strokeColor=#4D4D4D;strokeWidth=2;exitX=1;exitY=0.5;exitDx=0;exitDy=0;entryX=0;entryY=0.5;entryDx=0;entryDy=0;" parent="1" source="277" target="290" edge="1">
                    <mxGeometry width="50" height="50" relative="1" as="geometry">
                        <mxPoint x="450" y="650" as="sourcePoint"/>
                        <mxPoint x="530" y="640" as="targetPoint"/>
                    </mxGeometry>
                </mxCell>
                <mxCell id="297" value="" style="endArrow=classic;html=1;dashed=1;fontColor=#1A1A1A;strokeColor=#4D4D4D;strokeWidth=2;exitX=1;exitY=0.5;exitDx=0;exitDy=0;" parent="1" source="283" edge="1">
                    <mxGeometry width="50" height="50" relative="1" as="geometry">
                        <mxPoint x="450" y="720" as="sourcePoint"/>
                        <mxPoint x="540" y="700" as="targetPoint"/>
                    </mxGeometry>
                </mxCell>
                <mxCell id="298" value="&lt;font color=&quot;#4d4d4d&quot; style=&quot;font-size: 14px&quot;&gt;&amp;nbsp;获取config.js中的配置（&lt;/font&gt;&lt;span style=&quot;color: rgb(77 , 77 , 77) ; font-size: 14px&quot;&gt;语言、主题、组件等&lt;/span&gt;&lt;font color=&quot;#4d4d4d&quot; style=&quot;font-size: 14px&quot;&gt;）挂载全局&amp;nbsp;&lt;/font&gt;" style="rounded=0;whiteSpace=wrap;html=1;fillColor=#d0cee2;strokeColor=#56517e;align=left;" parent="1" vertex="1">
                    <mxGeometry x="540" y="790" width="380" height="40" as="geometry"/>
                </mxCell>
                <mxCell id="300" value="" style="endArrow=classic;html=1;dashed=1;fontColor=#1A1A1A;strokeColor=#4D4D4D;strokeWidth=2;" parent="1" edge="1">
                    <mxGeometry width="50" height="50" relative="1" as="geometry">
                        <mxPoint x="450" y="820" as="sourcePoint"/>
                        <mxPoint x="530" y="810" as="targetPoint"/>
                    </mxGeometry>
                </mxCell>
                <mxCell id="301" value="&lt;span style=&quot;color: rgb(26 , 26 , 26) ; font-size: 14px ; text-align: center&quot;&gt;&amp;nbsp;可根据项目依赖情况做增减&lt;/span&gt;" style="rounded=0;whiteSpace=wrap;html=1;fillColor=#d0cee2;strokeColor=#56517e;align=left;" parent="1" vertex="1">
                    <mxGeometry x="535" y="860" width="385" height="40" as="geometry"/>
                </mxCell>
                <mxCell id="303" value="" style="endArrow=classic;html=1;dashed=1;fontColor=#1A1A1A;strokeColor=#4D4D4D;strokeWidth=2;entryX=0;entryY=0.5;entryDx=0;entryDy=0;" parent="1" target="301" edge="1">
                    <mxGeometry width="50" height="50" relative="1" as="geometry">
                        <mxPoint x="450" y="880" as="sourcePoint"/>
                        <mxPoint x="530" y="890" as="targetPoint"/>
                    </mxGeometry>
                </mxCell>
                <mxCell id="304" value="&lt;span style=&quot;color: rgb(26 , 26 , 26) ; font-size: 14px ; text-align: center&quot;&gt;&amp;nbsp;全局服务注册集成在此&lt;/span&gt;" style="rounded=0;whiteSpace=wrap;html=1;fillColor=#d0cee2;strokeColor=#56517e;align=left;" parent="1" vertex="1">
                    <mxGeometry x="535" y="925" width="385" height="40" as="geometry"/>
                </mxCell>
                <mxCell id="305" value="" style="endArrow=classic;html=1;dashed=1;fontColor=#1A1A1A;strokeColor=#4D4D4D;strokeWidth=2;" parent="1" edge="1">
                    <mxGeometry width="50" height="50" relative="1" as="geometry">
                        <mxPoint x="450" y="938" as="sourcePoint"/>
                        <mxPoint x="530" y="945" as="targetPoint"/>
                    </mxGeometry>
                </mxCell>
                <mxCell id="306" value="&lt;div style=&quot;text-align: center&quot;&gt;&lt;font color=&quot;#1a1a1a&quot;&gt;&lt;span style=&quot;font-size: 14px&quot;&gt;&amp;nbsp;语言国际化，用于挂载到Vue实例&lt;/span&gt;&lt;/font&gt;&lt;/div&gt;" style="rounded=0;whiteSpace=wrap;html=1;fillColor=#d0cee2;strokeColor=#56517e;align=left;" parent="1" vertex="1">
                    <mxGeometry x="535" y="990" width="385" height="40" as="geometry"/>
                </mxCell>
                <mxCell id="307" value="" style="endArrow=classic;html=1;dashed=1;fontColor=#1A1A1A;strokeColor=#4D4D4D;strokeWidth=2;" parent="1" edge="1">
                    <mxGeometry width="50" height="50" relative="1" as="geometry">
                        <mxPoint x="441" y="1000" as="sourcePoint"/>
                        <mxPoint x="530" y="1010" as="targetPoint"/>
                    </mxGeometry>
                </mxCell>
                <mxCell id="309" value="&lt;span style=&quot;font-size: 14px&quot;&gt;PaasJSSDK&lt;/span&gt;" style="rounded=1;whiteSpace=wrap;html=1;fontColor=#1A1A1A;fillColor=#FFFFFF;" parent="1" vertex="1">
                    <mxGeometry x="400" y="244.00000000000003" width="110" height="30" as="geometry"/>
                </mxCell>
                <mxCell id="310" value="&lt;span style=&quot;font-size: 14px&quot;&gt;接口服务&lt;/span&gt;" style="rounded=1;whiteSpace=wrap;html=1;fontColor=#1A1A1A;fillColor=#FFFFFF;" parent="1" vertex="1">
                    <mxGeometry x="400" y="285.0000000000001" width="110" height="30" as="geometry"/>
                </mxCell>
                <mxCell id="320" value="&lt;span style=&quot;font-size: 14px&quot;&gt;事件队列&lt;/span&gt;" style="rounded=1;whiteSpace=wrap;html=1;fontColor=#1A1A1A;fillColor=#FFFFFF;" parent="1" vertex="1">
                    <mxGeometry x="845" y="273" width="110" height="30" as="geometry"/>
                </mxCell>
                <mxCell id="321" value="&lt;span style=&quot;font-size: 14px&quot;&gt;服务池&lt;/span&gt;" style="rounded=1;whiteSpace=wrap;html=1;fontColor=#1A1A1A;fillColor=#FFFFFF;" parent="1" vertex="1">
                    <mxGeometry x="845" y="233" width="110" height="30" as="geometry"/>
                </mxCell>
                <mxCell id="322" value="&lt;span style=&quot;font-size: 14px&quot;&gt;信令交互&lt;/span&gt;" style="rounded=1;whiteSpace=wrap;html=1;fontColor=#1A1A1A;fillColor=#FFFFFF;" parent="1" vertex="1">
                    <mxGeometry x="845" y="313" width="110" height="30" as="geometry"/>
                </mxCell>
                <mxCell id="328" value="&lt;font style=&quot;font-size: 36px&quot;&gt;技&lt;br&gt;术&lt;br&gt;架&lt;br&gt;构&lt;/font&gt;" style="rounded=0;whiteSpace=wrap;html=1;fontColor=#ffffff;fillColor=#0050ef;align=center;strokeColor=#001DBC;" parent="1" vertex="1">
                    <mxGeometry x="40" y="10" width="70" height="1070" as="geometry"/>
                </mxCell>
                <mxCell id="332" value="&lt;font style=&quot;font-size: 14px&quot;&gt;air-container&lt;/font&gt;" style="rounded=1;whiteSpace=wrap;html=1;fontColor=#1A1A1A;fillColor=#FFFFFF;" parent="1" vertex="1">
                    <mxGeometry x="577" y="256" width="110" height="30" as="geometry"/>
                </mxCell>
                <mxCell id="333" value="&lt;font style=&quot;font-size: 14px&quot;&gt;icon-text&lt;/font&gt;" style="rounded=1;whiteSpace=wrap;html=1;fontColor=#1A1A1A;fillColor=#FFFFFF;" parent="1" vertex="1">
                    <mxGeometry x="577" y="303" width="110" height="30" as="geometry"/>
                </mxCell>
                <mxCell id="336" value="language-choice" style="rounded=1;whiteSpace=wrap;html=1;fontColor=#1A1A1A;fillColor=#FFFFFF;" parent="1" vertex="1">
                    <mxGeometry x="577" y="352" width="110" height="30" as="geometry"/>
                </mxCell>
                <mxCell id="339" value="&lt;font style=&quot;font-size: 36px&quot; color=&quot;#000000&quot;&gt;......&lt;/font&gt;" style="text;html=1;strokeColor=none;fillColor=none;align=center;verticalAlign=middle;whiteSpace=wrap;rounded=0;" parent="1" vertex="1">
                    <mxGeometry x="612" y="389" width="40" height="20" as="geometry"/>
                </mxCell>
                <mxCell id="340" value="" style="shape=flexArrow;endArrow=classic;startArrow=classic;html=1;fontColor=#1A1A1A;strokeColor=#4D4D4D;strokeWidth=2;exitX=0.994;exitY=0.459;exitDx=0;exitDy=0;exitPerimeter=0;" parent="1" source="215" edge="1">
                    <mxGeometry width="100" height="100" relative="1" as="geometry">
                        <mxPoint x="740" y="320" as="sourcePoint"/>
                        <mxPoint x="820" y="320" as="targetPoint"/>
                    </mxGeometry>
                </mxCell>
                <mxCell id="341" value="&lt;font color=&quot;#000000&quot;&gt;第三方库&lt;/font&gt;" style="rounded=1;whiteSpace=wrap;html=1;fillColor=#FFB366;strokeColor=#000000;" parent="1" vertex="1">
                    <mxGeometry x="385" y="380" width="130" height="53.5" as="geometry"/>
                </mxCell>
                <mxCell id="343" value="组件间交互" style="text;html=1;strokeColor=none;fillColor=none;align=center;verticalAlign=middle;whiteSpace=wrap;rounded=0;fontColor=#1A1A1A;" parent="1" vertex="1">
                    <mxGeometry x="760" y="280" width="40" height="34" as="geometry"/>
                </mxCell>
                <mxCell id="345" value="&lt;span style=&quot;font-size: 14px&quot;&gt;共享数据&lt;/span&gt;" style="rounded=1;whiteSpace=wrap;html=1;fontColor=#1A1A1A;fillColor=#FFFFFF;" parent="1" vertex="1">
                    <mxGeometry x="845" y="352" width="110" height="30" as="geometry"/>
                </mxCell>
                <mxCell id="346" value="" style="endArrow=classic;startArrow=classic;html=1;fontColor=#1A1A1A;strokeColor=#4D4D4D;strokeWidth=2;entryX=-0.002;entryY=0.399;entryDx=0;entryDy=0;entryPerimeter=0;" parent="1" target="215" edge="1">
                    <mxGeometry width="50" height="50" relative="1" as="geometry">
                        <mxPoint x="520" y="310" as="sourcePoint"/>
                        <mxPoint x="570" y="290" as="targetPoint"/>
                    </mxGeometry>
                </mxCell>
                <mxCell id="347" value="" style="endArrow=classic;html=1;fontColor=#1A1A1A;strokeColor=#4D4D4D;strokeWidth=2;exitX=1;exitY=0.5;exitDx=0;exitDy=0;" parent="1" source="341" edge="1">
                    <mxGeometry width="50" height="50" relative="1" as="geometry">
                        <mxPoint x="510" y="450" as="sourcePoint"/>
                        <mxPoint x="560" y="400" as="targetPoint"/>
                    </mxGeometry>
                </mxCell>
                <mxCell id="348" value="&lt;span style=&quot;font-size: 14px&quot;&gt;vue-configs&lt;/span&gt;" style="rounded=1;whiteSpace=wrap;html=1;fontColor=#1A1A1A;fillColor=#FFFFFF;" parent="1" vertex="1">
                    <mxGeometry x="239" y="292" width="120" height="30" as="geometry"/>
                </mxCell>
                <mxCell id="350" value="&lt;span style=&quot;font-size: 14px&quot;&gt;package.json&lt;/span&gt;" style="rounded=1;whiteSpace=wrap;html=1;fontColor=#1A1A1A;fillColor=#FFFFFF;" parent="1" vertex="1">
                    <mxGeometry x="239" y="328.5" width="120" height="30" as="geometry"/>
                </mxCell>
                <mxCell id="353" value="&lt;span style=&quot;font-size: 14px&quot;&gt;.env.xxx&lt;/span&gt;" style="rounded=1;whiteSpace=wrap;html=1;fontColor=#1A1A1A;fillColor=#FFFFFF;" parent="1" vertex="1">
                    <mxGeometry x="239" y="366.75" width="120" height="30" as="geometry"/>
                </mxCell>
                <mxCell id="354" value="&lt;font style=&quot;font-size: 36px&quot; color=&quot;#000000&quot;&gt;......&lt;/font&gt;" style="text;html=1;strokeColor=none;fillColor=none;align=center;verticalAlign=middle;whiteSpace=wrap;rounded=0;" parent="1" vertex="1">
                    <mxGeometry x="271.5" y="396.75" width="38.5" height="20" as="geometry"/>
                </mxCell>
                <mxCell id="355" value="&lt;span style=&quot;font-size: 18px&quot;&gt;控制台&lt;/span&gt;" style="rounded=1;whiteSpace=wrap;html=1;fontColor=#1A1A1A;fillColor=#FFFFFF;" vertex="1" parent="1">
                    <mxGeometry x="700" y="130" width="100" height="40" as="geometry"/>
                </mxCell>
                <mxCell id="360" value="&lt;span style=&quot;font-size: 18px&quot;&gt;admin&lt;/span&gt;" style="rounded=1;whiteSpace=wrap;html=1;fontColor=#1A1A1A;fillColor=#FFFFFF;" vertex="1" parent="1">
                    <mxGeometry x="840" y="130" width="100" height="40" as="geometry"/>
                </mxCell>
                <mxCell id="361" value="" style="curved=1;endArrow=classic;html=1;exitX=0.5;exitY=1;exitDx=0;exitDy=0;fillColor=#1ba1e2;strokeColor=#006EAF;strokeWidth=2;entryX=0;entryY=0.5;entryDx=0;entryDy=0;" edge="1" parent="1" source="215" target="363">
                    <mxGeometry width="50" height="50" relative="1" as="geometry">
                        <mxPoint x="740" y="510" as="sourcePoint"/>
                        <mxPoint x="1150" y="400" as="targetPoint"/>
                        <Array as="points">
                            <mxPoint x="740" y="500"/>
                            <mxPoint x="1090" y="400"/>
                        </Array>
                    </mxGeometry>
                </mxCell>
                <mxCell id="363" value="" style="rounded=1;whiteSpace=wrap;html=1;gradientColor=#7EA6E0;fillColor=#E9BDFF;" vertex="1" parent="1">
                    <mxGeometry x="1160" y="20" width="320" height="780" as="geometry"/>
                </mxCell>
                <mxCell id="364" value="&lt;font style=&quot;font-size: 14px&quot;&gt;资料下载组件&lt;/font&gt;" style="rounded=1;whiteSpace=wrap;html=1;fontColor=#1A1A1A;fillColor=#FFFFFF;" vertex="1" parent="1">
                    <mxGeometry x="1340" y="255" width="110" height="30" as="geometry"/>
                </mxCell>
                <mxCell id="365" value="&lt;font style=&quot;font-size: 14px&quot;&gt;左侧菜单栏组件&lt;/font&gt;" style="rounded=1;whiteSpace=wrap;html=1;fontColor=#1A1A1A;fillColor=#FFFFFF;" vertex="1" parent="1">
                    <mxGeometry x="1340" y="333" width="110" height="30" as="geometry"/>
                </mxCell>
                <mxCell id="366" value="&lt;span style=&quot;font-size: 14px&quot;&gt;聊天组件&lt;/span&gt;" style="rounded=1;whiteSpace=wrap;html=1;fontColor=#1A1A1A;fillColor=#FFFFFF;" vertex="1" parent="1">
                    <mxGeometry x="1190" y="170" width="110" height="30" as="geometry"/>
                </mxCell>
                <mxCell id="367" value="&lt;font style=&quot;font-size: 14px&quot;&gt;分屏组件&lt;/font&gt;" style="rounded=1;whiteSpace=wrap;html=1;fontColor=#1A1A1A;fillColor=#FFFFFF;" vertex="1" parent="1">
                    <mxGeometry x="1190" y="449.99999999999994" width="110" height="30" as="geometry"/>
                </mxCell>
                <mxCell id="368" value="&lt;font style=&quot;font-size: 14px&quot;&gt;专题列表组件&lt;/font&gt;" style="rounded=1;whiteSpace=wrap;html=1;fontColor=#1A1A1A;fillColor=#FFFFFF;" vertex="1" parent="1">
                    <mxGeometry x="1190" y="530" width="110" height="30" as="geometry"/>
                </mxCell>
                <mxCell id="369" value="&lt;font style=&quot;font-size: 14px&quot;&gt;专题详情组件&lt;/font&gt;" style="rounded=1;whiteSpace=wrap;html=1;fontColor=#1A1A1A;fillColor=#FFFFFF;" vertex="1" parent="1">
                    <mxGeometry x="1190" y="570" width="110" height="30" as="geometry"/>
                </mxCell>
                <mxCell id="370" value="&lt;font style=&quot;font-size: 14px&quot;&gt;媒体检测组件&lt;/font&gt;" style="rounded=1;whiteSpace=wrap;html=1;fontColor=#1A1A1A;fillColor=#FFFFFF;" vertex="1" parent="1">
                    <mxGeometry x="1190" y="373" width="110" height="30" as="geometry"/>
                </mxCell>
                <mxCell id="371" value="&lt;font style=&quot;font-size: 14px&quot;&gt;播放器组件&lt;/font&gt;" style="rounded=1;whiteSpace=wrap;html=1;fontColor=#1A1A1A;fillColor=#FFFFFF;" vertex="1" parent="1">
                    <mxGeometry x="1340" y="372.99999999999994" width="110" height="30" as="geometry"/>
                </mxCell>
                <mxCell id="372" value="&lt;font style=&quot;font-size: 14px&quot;&gt;分组设置组件&lt;/font&gt;" style="rounded=1;whiteSpace=wrap;html=1;fontColor=#1A1A1A;fillColor=#FFFFFF;" vertex="1" parent="1">
                    <mxGeometry x="1340" y="294" width="110" height="30" as="geometry"/>
                </mxCell>
                <mxCell id="373" value="&lt;span style=&quot;font-size: 14px&quot;&gt;报名表单组件&lt;/span&gt;" style="rounded=1;whiteSpace=wrap;html=1;fontColor=#1A1A1A;fillColor=#FFFFFF;" vertex="1" parent="1">
                    <mxGeometry x="1340" y="570" width="110" height="30" as="geometry"/>
                </mxCell>
                <mxCell id="374" value="&lt;span style=&quot;font-size: 14px&quot;&gt;转播组件&lt;/span&gt;" style="rounded=1;whiteSpace=wrap;html=1;fontColor=#1A1A1A;fillColor=#FFFFFF;" vertex="1" parent="1">
                    <mxGeometry x="1190" y="610" width="110" height="30" as="geometry"/>
                </mxCell>
                <mxCell id="375" value="&lt;span style=&quot;font-size: 14px&quot;&gt;c端个人中心组件&lt;/span&gt;" style="rounded=1;whiteSpace=wrap;html=1;fontColor=#1A1A1A;fillColor=#FFFFFF;" vertex="1" parent="1">
                    <mxGeometry x="1190" y="650" width="110" height="30" as="geometry"/>
                </mxCell>
                <mxCell id="376" value="&lt;span style=&quot;font-size: 14px&quot;&gt;自定义菜单组件&lt;/span&gt;" style="rounded=1;whiteSpace=wrap;html=1;fontColor=#1A1A1A;fillColor=#FFFFFF;" vertex="1" parent="1">
                    <mxGeometry x="1340" y="610" width="110" height="30" as="geometry"/>
                </mxCell>
                <mxCell id="377" value="&lt;span style=&quot;font-size: 14px&quot;&gt;推广组件&lt;/span&gt;" style="rounded=1;whiteSpace=wrap;html=1;fontColor=#1A1A1A;fillColor=#FFFFFF;" vertex="1" parent="1">
                    <mxGeometry x="1340" y="650" width="110" height="30" as="geometry"/>
                </mxCell>
                <mxCell id="378" value="&lt;span style=&quot;font-size: 14px&quot;&gt;点赞组件&lt;/span&gt;" style="rounded=1;whiteSpace=wrap;html=1;fontColor=#1A1A1A;fillColor=#FFFFFF;" vertex="1" parent="1">
                    <mxGeometry x="1190" y="690" width="110" height="30" as="geometry"/>
                </mxCell>
                <mxCell id="379" value="&lt;span style=&quot;font-size: 14px&quot;&gt;虚拟人数组件&lt;/span&gt;" style="rounded=1;whiteSpace=wrap;html=1;fontColor=#1A1A1A;fillColor=#FFFFFF;" vertex="1" parent="1">
                    <mxGeometry x="1340" y="530" width="110" height="30" as="geometry"/>
                </mxCell>
                <mxCell id="380" value="&lt;span style=&quot;font-size: 14px&quot;&gt;公告展示组件&lt;/span&gt;" style="rounded=1;whiteSpace=wrap;html=1;fontColor=#1A1A1A;fillColor=#FFFFFF;" vertex="1" parent="1">
                    <mxGeometry x="1340" y="490.6600000000001" width="110" height="30" as="geometry"/>
                </mxCell>
                <mxCell id="381" value="&lt;span style=&quot;font-size: 14px&quot;&gt;公告列表组件&lt;/span&gt;" style="rounded=1;whiteSpace=wrap;html=1;fontColor=#1A1A1A;fillColor=#FFFFFF;" vertex="1" parent="1">
                    <mxGeometry x="1340" y="450" width="110" height="30" as="geometry"/>
                </mxCell>
                <mxCell id="382" value="&lt;font style=&quot;font-size: 14px&quot;&gt;聊天审核组件&lt;/font&gt;" style="rounded=1;whiteSpace=wrap;html=1;fontColor=#1A1A1A;fillColor=#FFFFFF;" vertex="1" parent="1">
                    <mxGeometry x="1190" y="130" width="110" height="30" as="geometry"/>
                </mxCell>
                <mxCell id="383" value="&lt;span style=&quot;font-size: 14px&quot;&gt;私聊组件&lt;/span&gt;" style="rounded=1;whiteSpace=wrap;html=1;fontColor=#1A1A1A;fillColor=#FFFFFF;" vertex="1" parent="1">
                    <mxGeometry x="1190" y="90" width="110" height="30" as="geometry"/>
                </mxCell>
                <mxCell id="384" value="&lt;span style=&quot;font-size: 14px&quot;&gt;小组群聊组件&lt;/span&gt;" style="rounded=1;whiteSpace=wrap;html=1;fontColor=#1A1A1A;fillColor=#FFFFFF;" vertex="1" parent="1">
                    <mxGeometry x="1190" y="50" width="110" height="30" as="geometry"/>
                </mxCell>
                <mxCell id="385" value="&lt;span style=&quot;font-size: 14px&quot;&gt;观看端头部组件&lt;/span&gt;" style="rounded=1;whiteSpace=wrap;html=1;fontColor=#1A1A1A;fillColor=#FFFFFF;" vertex="1" parent="1">
                    <mxGeometry x="1340" y="50" width="110" height="30" as="geometry"/>
                </mxCell>
                <mxCell id="386" value="&lt;font style=&quot;font-size: 14px&quot;&gt;插播组件&lt;/font&gt;" style="rounded=1;whiteSpace=wrap;html=1;fontColor=#1A1A1A;fillColor=#FFFFFF;" vertex="1" parent="1">
                    <mxGeometry x="1190" y="255" width="110" height="30" as="geometry"/>
                </mxCell>
                <mxCell id="387" value="&lt;font style=&quot;font-size: 14px&quot;&gt;互动管理组件&lt;/font&gt;" style="rounded=1;whiteSpace=wrap;html=1;fontColor=#1A1A1A;fillColor=#FFFFFF;" vertex="1" parent="1">
                    <mxGeometry x="1190" y="214" width="110" height="30" as="geometry"/>
                </mxCell>
                <mxCell id="388" value="&lt;span style=&quot;font-size: 14px&quot;&gt;发起端头部组件&lt;/span&gt;" style="rounded=1;whiteSpace=wrap;html=1;fontColor=#1A1A1A;fillColor=#FFFFFF;" vertex="1" parent="1">
                    <mxGeometry x="1340" y="90" width="110" height="30" as="geometry"/>
                </mxCell>
                <mxCell id="389" value="&lt;span style=&quot;font-size: 14px&quot;&gt;c端登录组件&lt;/span&gt;" style="rounded=1;whiteSpace=wrap;html=1;fontColor=#1A1A1A;fillColor=#FFFFFF;" vertex="1" parent="1">
                    <mxGeometry x="1340" y="130" width="110" height="30" as="geometry"/>
                </mxCell>
                <mxCell id="390" value="&lt;span style=&quot;font-size: 14px&quot;&gt;成员列表组件&lt;/span&gt;" style="rounded=1;whiteSpace=wrap;html=1;fontColor=#1A1A1A;fillColor=#FFFFFF;" vertex="1" parent="1">
                    <mxGeometry x="1340" y="414" width="110" height="30" as="geometry"/>
                </mxCell>
                <mxCell id="391" value="&lt;span style=&quot;font-size: 14px&quot;&gt;文档列表组件&lt;/span&gt;" style="rounded=1;whiteSpace=wrap;html=1;fontColor=#1A1A1A;fillColor=#FFFFFF;" vertex="1" parent="1">
                    <mxGeometry x="1340" y="214" width="110" height="30" as="geometry"/>
                </mxCell>
                <mxCell id="392" value="&lt;span style=&quot;font-size: 14px&quot;&gt;文档组件&lt;/span&gt;" style="rounded=1;whiteSpace=wrap;html=1;fontColor=#1A1A1A;fillColor=#FFFFFF;" vertex="1" parent="1">
                    <mxGeometry x="1340" y="170" width="110" height="30" as="geometry"/>
                </mxCell>
                <mxCell id="393" value="&lt;span style=&quot;font-size: 14px&quot;&gt;本地推流组件&lt;/span&gt;" style="rounded=1;whiteSpace=wrap;html=1;fontColor=#1A1A1A;fillColor=#FFFFFF;" vertex="1" parent="1">
                    <mxGeometry x="1190" y="333" width="110" height="30" as="geometry"/>
                </mxCell>
                <mxCell id="396" value="&lt;span style=&quot;font-size: 14px&quot;&gt;远端流订阅组件&lt;/span&gt;" style="rounded=1;whiteSpace=wrap;html=1;fontColor=#1A1A1A;fillColor=#FFFFFF;" vertex="1" parent="1">
                    <mxGeometry x="1190" y="293.99999999999994" width="110" height="30" as="geometry"/>
                </mxCell>
                <mxCell id="397" value="&lt;span style=&quot;font-size: 14px&quot;&gt;媒体设置组件&lt;/span&gt;" style="rounded=1;whiteSpace=wrap;html=1;fontColor=#1A1A1A;fillColor=#FFFFFF;" vertex="1" parent="1">
                    <mxGeometry x="1190" y="414" width="110" height="30" as="geometry"/>
                </mxCell>
                <mxCell id="400" value="&lt;span style=&quot;font-size: 14px&quot;&gt;多语言组件&lt;/span&gt;" style="rounded=1;whiteSpace=wrap;html=1;fontColor=#1A1A1A;fillColor=#FFFFFF;" vertex="1" parent="1">
                    <mxGeometry x="1340" y="690" width="110" height="30" as="geometry"/>
                </mxCell>
                <mxCell id="401" value="&lt;font style=&quot;font-size: 14px&quot;&gt;桌面共享组件&lt;/font&gt;" style="rounded=1;whiteSpace=wrap;html=1;fontColor=#1A1A1A;fillColor=#FFFFFF;" vertex="1" parent="1">
                    <mxGeometry x="1190" y="490.65999999999997" width="110" height="30" as="geometry"/>
                </mxCell>
                <mxCell id="402" value="&lt;span style=&quot;font-size: 14px&quot;&gt;互动连麦组件&lt;/span&gt;" style="rounded=1;whiteSpace=wrap;html=1;fontColor=#1A1A1A;fillColor=#FFFFFF;" vertex="1" parent="1">
                    <mxGeometry x="1190" y="730" width="110" height="30" as="geometry"/>
                </mxCell>
                <mxCell id="403" value="&lt;font style=&quot;font-size: 20px&quot; color=&quot;#000000&quot;&gt;&lt;b style=&quot;line-height: 100%&quot;&gt;. . . . . .&lt;/b&gt;&lt;/font&gt;" style="text;html=1;strokeColor=none;fillColor=none;align=center;verticalAlign=middle;whiteSpace=wrap;rounded=0;" vertex="1" parent="1">
                    <mxGeometry x="1360" y="730" width="70" height="20" as="geometry"/>
                </mxCell>
                <mxCell id="404" value="&lt;span style=&quot;font-size: 18px&quot;&gt;轻享&lt;/span&gt;" style="rounded=1;whiteSpace=wrap;html=1;fontColor=#1A1A1A;fillColor=#FFFFFF;" vertex="1" parent="1">
                    <mxGeometry x="587" y="30" width="100" height="40" as="geometry"/>
                </mxCell>
            </root>
        </mxGraphModel>
    </diagram>
</mxfile>